<svg width="21" height="21" viewBox="0 0 21 21" fill="none" xmlns="http://www.w3.org/2000/svg">
<path d="M18.5053 3.91096C18.0767 4.33948 17.3789 4.33948 16.9463 3.91096C16.5177 3.48244 16.5177 2.78456 16.9463 2.35196C17.3748 1.92344 18.0727 1.92344 18.5053 2.35196C18.9338 2.78456 18.9338 3.48244 18.5053 3.91096ZM16.8646 9.46541C16.2851 10.9306 15.0567 12.2773 13.9344 13.3997C12.6488 14.6852 12.204 16.3544 12.0774 17.6563L3.19684 8.7757C4.49873 8.64918 6.16792 8.20434 7.45349 6.91877C8.5758 5.79645 9.92259 4.56803 11.3877 3.9885C13.0488 3.33143 14.4568 3.66201 15.8239 5.0292C17.1911 6.39638 17.5217 7.80438 16.8646 9.46541ZM5.07417 15.783C4.2008 14.9097 4.07429 13.5629 4.70687 12.5589L8.30237 16.1544C7.29024 16.7829 5.94754 16.6605 5.07417 15.783ZM19.6357 1.22148C18.5787 0.164456 16.8687 0.164456 15.8158 1.22148C15.4403 1.59694 15.1995 2.05811 15.0893 2.53969C14.6812 2.34788 14.2609 2.2132 13.8323 2.13566C12.861 1.96017 11.8407 2.0826 10.8 2.49072C9.06146 3.17635 7.5596 4.53946 6.31892 5.78013C4.4824 7.61665 1.38889 7.16364 1.36032 7.15548C1.0175 7.09834 0.674683 7.27383 0.515517 7.584C0.356352 7.89417 0.41757 8.27372 0.662439 8.51859L3.53966 11.3958C2.29082 13.0487 2.41734 15.4157 3.92737 16.9217C5.43331 18.4276 7.80038 18.5582 9.45325 17.3094L12.3305 20.1866C12.5753 20.4315 12.9549 20.4927 13.2651 20.3335C13.5752 20.1744 13.7507 19.8356 13.6936 19.4887C13.6936 19.4806 13.5752 18.697 13.6895 17.6889C13.8405 16.3585 14.3058 15.2933 15.0689 14.5301C16.3096 13.2895 17.6727 11.7876 18.3583 10.049C18.7705 9.00832 18.8889 7.98804 18.7134 7.01672C18.6359 6.5882 18.5012 6.16784 18.3094 5.75972C18.795 5.65361 19.2521 5.40874 19.6276 5.03328C20.6928 3.9885 20.6928 2.2785 19.6357 1.22148Z" fill="#42A4F4"/>
</svg>
