<svg width="20" height="20" viewBox="0 0 20 20" fill="none" xmlns="http://www.w3.org/2000/svg">
<g clip-path="url(#clip0)">
<path d="M16.0617 10.0084V7.80355C16.0617 6.18045 15.4285 4.65557 14.2788 3.50978C13.5839 2.81739 12.7512 2.31454 11.8428 2.02595V1.84286C11.8428 0.826683 11.0161 0 9.99995 0C8.98377 0 8.15709 0.826683 8.15709 1.84286V2.0318C5.71391 2.82235 3.93824 5.1401 3.93824 7.86288V10.0084C3.93824 12.2027 3.28222 14.319 2.04101 16.1286L1.40308 17.0587H6.5147C6.7981 18.7262 8.25295 20 9.99995 20C11.7469 20 13.2018 18.7262 13.4852 17.0587H18.5968L17.9589 16.1286C16.7177 14.319 16.0617 12.2027 16.0617 10.0084ZM9.99995 1.18817C10.3386 1.18817 10.618 1.44657 10.6513 1.77657C10.4365 1.7538 10.2192 1.74184 10.0001 1.74184C9.99299 1.74184 9.98569 1.74184 9.97854 1.74188C9.97815 1.74188 9.97776 1.74188 9.97737 1.74188C9.92518 1.74208 9.87311 1.74294 9.82123 1.74446C9.81346 1.74469 9.80573 1.74516 9.79795 1.74544C9.75327 1.74696 9.70873 1.74868 9.66428 1.75114C9.65373 1.75173 9.64327 1.75266 9.63276 1.75329C9.59131 1.75579 9.54994 1.75848 9.50869 1.76184C9.49213 1.76317 9.47561 1.76497 9.45909 1.76649C9.42432 1.76962 9.38955 1.77266 9.3549 1.77637C9.35276 1.77661 9.35069 1.77676 9.34854 1.777C9.3817 1.4468 9.66123 1.18817 9.99995 1.18817ZM9.99995 18.8119C8.91084 18.8119 7.99256 18.0663 7.72888 17.0588H12.2711C12.0073 18.0663 11.0891 18.8119 9.99995 18.8119ZM13.5354 15.8706H6.46454H3.59906C4.60118 14.0826 5.12641 12.0767 5.12641 10.0084V7.86292C5.12641 5.45436 6.84638 3.43904 9.10819 3.0131C9.11522 3.01181 9.12221 3.01036 9.1292 3.00907C9.15768 3.00384 9.18631 2.99911 9.21494 2.99435C9.23045 2.99181 9.24596 2.98919 9.26151 2.98681C9.28565 2.9831 9.3099 2.97958 9.3342 2.97622C9.35455 2.97341 9.37491 2.97068 9.3953 2.9681C9.41659 2.9654 9.43795 2.96282 9.45932 2.96044C9.48303 2.95779 9.50678 2.95536 9.53053 2.95306C9.54959 2.95118 9.56858 2.94935 9.58768 2.94771C9.6142 2.94544 9.64077 2.94357 9.66733 2.94173C9.68432 2.9406 9.70127 2.93927 9.7183 2.93829C9.74834 2.93653 9.77842 2.93532 9.80854 2.93415C9.82245 2.93361 9.83627 2.93286 9.85022 2.93239C9.89432 2.93107 9.93846 2.93021 9.9826 2.93005C10.0273 2.92993 10.072 2.93052 10.1167 2.93161C10.1297 2.93193 10.1426 2.93251 10.1556 2.9329C10.188 2.93392 10.2203 2.93517 10.2526 2.93681C10.2664 2.93751 10.2802 2.93841 10.294 2.93923C10.3264 2.94118 10.3589 2.94337 10.3913 2.94595C10.4034 2.94689 10.4157 2.94794 10.4278 2.94896C10.4644 2.95216 10.5009 2.95571 10.5374 2.95974C10.5448 2.96056 10.5523 2.9613 10.5597 2.96216C10.7463 2.98353 10.9312 3.01544 11.1135 3.05802L11.18 3.07353C12.0273 3.28345 12.8055 3.71916 13.44 4.35142C14.3644 5.27256 14.8734 6.49858 14.8734 7.80355V10.0084C14.8734 12.0767 15.3986 14.0827 16.4008 15.8706H13.5354V15.8706Z" fill="#DDDDDD" stroke="#DDDDDD" stroke-width="0.25"/>
</g>
<defs>
<clipPath id="clip0">
<rect width="20" height="20" fill="white"/>
</clipPath>
</defs>
</svg>
