<svg width="23" height="20" viewBox="0 0 23 20" fill="none" xmlns="http://www.w3.org/2000/svg">
<path d="M0.822106 1.63044H3.17879L6.53574 13.6685C6.63164 14.0217 6.96048 14.2663 7.33043 14.2663H17.6479C17.9767 14.2663 18.2644 14.0761 18.4014 13.7772L22.1557 5.21739C22.2653 4.95926 22.2379 4.67393 22.0872 4.44294C21.9365 4.21194 21.6761 4.07609 21.4021 4.07609H10.0023C9.55012 4.07609 9.18017 4.44294 9.18017 4.89131C9.18017 5.33968 9.55012 5.70652 10.0023 5.70652H20.1416L17.0998 12.6359H7.94701L4.59011 0.597842C4.49421 0.244565 4.16537 0 3.79542 0H0.822106C0.369948 0 0 0.366848 0 0.815218C0 1.26359 0.369948 1.63044 0.822106 1.63044Z" fill="#42A4F4"/>
<path d="M6.54947 20C7.5771 20 8.41289 19.1712 8.41289 18.1522C8.41289 17.1332 7.5771 16.3044 6.54947 16.3044C5.52184 16.3044 4.68604 17.1331 4.68604 18.1521C4.68604 19.1712 5.52184 20 6.54947 20Z" fill="#42A4F4"/>
<path d="M18.1959 19.9999C18.237 19.9999 18.2918 19.9999 18.3329 19.9999C18.8262 19.9591 19.2784 19.7417 19.6072 19.3613C19.936 18.9944 20.0868 18.5189 20.0594 18.0161C19.9908 17.0107 19.1003 16.2362 18.0726 16.3042C17.045 16.3721 16.2777 17.2689 16.3462 18.2743C16.4147 19.239 17.2231 19.9999 18.1959 19.9999Z" fill="#42A4F4"/>
</svg>
