<svg width="20" height="20" viewBox="0 0 20 20" fill="none" xmlns="http://www.w3.org/2000/svg">
<path d="M19.4282 4.91452H0.571815C0.256286 4.91452 0 4.65823 0 4.3427V0.571815C0 0.255642 0.256286 0 0.571815 0H19.4282C19.7437 0 20 0.255642 20 0.571815V4.3427C20 4.65823 19.7437 4.91452 19.4282 4.91452ZM1.14299 3.77089H18.857V1.14234H1.14299V3.77089Z" fill="#42A4F4"/>
<path d="M19.4282 20H0.571815C0.256286 20 0 19.7437 0 19.4282V0.571815C0 0.255642 0.256286 0 0.571815 0H19.4282C19.7437 0 20 0.255642 20 0.571815V19.4282C20 19.7437 19.7437 20 19.4282 20ZM1.14299 18.857H18.857V1.14234H1.14299V18.857Z" fill="#42A4F4"/>
<path d="M11.5474 16H10.2852V10.9297C10.2852 10.3245 10.2995 9.84473 10.3281 9.49023C10.2458 9.57617 10.1437 9.67106 10.022 9.7749C9.90381 9.87874 9.50277 10.2082 8.81885 10.7632L8.18506 9.96289L10.4946 8.14746H11.5474V16Z" fill="#42A4F4"/>
</svg>
