<svg width="24" height="30" viewBox="0 0 24 30" fill="none" xmlns="http://www.w3.org/2000/svg">
<path d="M21.5829 0H5.51013C4.44553 0 3.57954 0.862852 3.57954 1.92352V3.56643H1.37777C0.618046 3.56643 0 4.18225 0 4.9391V28.6274C0 29.3843 0.618105 30 1.37777 30H18.5556C19.3153 30 19.9334 29.3842 19.9334 28.6274V26.4336H21.5828C22.6474 26.4336 23.5135 25.5707 23.5135 24.51V1.92352C23.5135 0.862852 22.6474 0 21.5829 0ZM18.543 28.6147H1.39041V4.95158H12.4607V9.44373C12.4607 10.3082 13.1665 11.0114 14.0342 11.0114H18.543V28.6147ZM13.8512 5.93121L17.5599 9.62619H14.0342C13.9333 9.62619 13.8512 9.54439 13.8512 9.44385V5.93121ZM21.5829 25.0482H19.9334V10.3189C19.9334 10.3133 19.9326 10.3082 19.9321 10.3029C19.928 10.1283 19.8588 9.95766 19.7298 9.8291L13.6475 3.76928C13.6472 3.76898 13.6468 3.76881 13.6466 3.76852C13.5209 3.64365 13.3474 3.56648 13.1559 3.56648H4.96989V1.92352C4.96989 1.6268 5.21219 1.38533 5.51007 1.38533H21.5827C21.8806 1.38533 22.123 1.62674 22.123 1.92352V24.51H22.123C22.1231 24.8068 21.8808 25.0482 21.5829 25.0482Z" fill="white"/>
</svg>
