<svg width="30" height="30" viewBox="0 0 30 30" fill="none" xmlns="http://www.w3.org/2000/svg">
<rect width="30" height="30" fill="#00467F"/>
<path d="M29.5584 8.37826C29.2853 8.22158 28.9492 8.22293 28.6774 8.38195L19.9805 13.4679V9.14062C19.9805 8.82574 19.812 8.53494 19.5389 8.37826C19.2657 8.22158 18.9297 8.22293 18.6579 8.38195L9.96094 13.4679V0.878906C9.96094 0.393516 9.56742 0 9.08203 0H0.878906C0.393516 0 0 0.393516 0 0.878906V29.1211C0 29.6065 0.393516 30 0.878906 30H29.1211C29.6065 30 30 29.6065 30 29.1211V9.14062C30 8.82574 29.8315 8.53494 29.5584 8.37826ZM1.75781 1.75781H8.20312V2.92969H1.75781V1.75781ZM28.2422 28.2422H1.75781V4.6875H8.20312V15C8.20312 15.6783 8.94106 16.1006 9.5257 15.7587L18.2227 10.6727V15C18.2227 15.6783 18.9606 16.1006 19.5452 15.7587L28.2422 10.6727V28.2422Z" fill="white"/>
<path d="M12.5977 19.4238H9.08203C8.59664 19.4238 8.20312 19.8173 8.20312 20.3027V23.8184C8.20312 24.3037 8.59664 24.6973 9.08203 24.6973H12.5977C13.083 24.6973 13.4766 24.3037 13.4766 23.8184V20.3027C13.4766 19.8173 13.083 19.4238 12.5977 19.4238ZM11.7188 22.9395H9.96094V21.1816H11.7188V22.9395Z" fill="white"/>
<path d="M22.6172 19.4238H19.1016C18.6162 19.4238 18.2227 19.8173 18.2227 20.3027V23.8184C18.2227 24.3037 18.6162 24.6973 19.1016 24.6973H22.6172C23.1026 24.6973 23.4961 24.3037 23.4961 23.8184V20.3027C23.4961 19.8173 23.1026 19.4238 22.6172 19.4238ZM21.7383 22.9395H19.9805V21.1816H21.7383V22.9395Z" fill="white"/>
</svg>
