<svg width="30" height="30" viewBox="0 0 30 30" fill="none" xmlns="http://www.w3.org/2000/svg">
<rect width="30" height="30" fill="#00467F"/>
<path d="M29.965 21.5978C29.9642 21.5933 29.9635 21.5888 29.9626 21.5844L28.6798 14.5594C28.464 13.2865 27.3718 12.3633 26.0799 12.3633H21.1469V11.4258C21.1469 8.96906 19.7051 6.84439 17.6181 5.85902C18.1758 5.23658 18.5159 4.41516 18.5159 3.51562C18.5159 1.57711 16.9387 0 15.0001 0C13.0614 0 11.4842 1.57711 11.4842 3.51562C11.4842 4.41522 11.8243 5.23664 12.3821 5.85902C10.2951 6.84439 8.84738 8.96906 8.84738 11.4258V12.3633H3.92019C2.62842 12.3633 1.53629 13.2863 1.32048 14.5591L0.0373788 21.5844C0.0365585 21.5888 0.0357967 21.5933 0.035035 21.5978C-0.215995 23.1037 0.912818 24.5061 2.43253 24.6545C2.03765 25.4736 1.8158 26.3927 1.8158 27.3633V29.1211C1.8158 29.6065 2.20934 30 2.69475 30H13.2422C13.7276 30 14.1153 29.6065 14.1153 29.1211V27.3633C14.1153 26.3981 13.9019 25.4778 13.5111 24.6621H16.4892C16.0983 25.4778 15.8791 26.3981 15.8791 27.3633V29.1211C15.8791 29.6065 16.2726 30 16.758 30H27.3055C27.7909 30 28.1786 29.6065 28.1786 29.1211V27.3633C28.1786 26.3927 27.9626 25.4736 27.5677 24.6545C29.0873 24.506 30.2159 23.1035 29.965 21.5978ZM15.0001 1.75781C15.9694 1.75781 16.758 2.54637 16.758 3.51562C16.758 4.48488 15.9694 5.27344 15.0001 5.27344C14.0308 5.27344 13.2422 4.48488 13.2422 3.51562C13.2422 2.54637 14.0308 1.75781 15.0001 1.75781ZM10.5995 11.4258C10.5995 9.00264 12.5768 7.03125 15.0001 7.03125C17.4234 7.03125 19.3949 9.00264 19.3949 11.4258V12.3633H10.5995V11.4258ZM12.3632 28.2422H3.56779V27.3633C3.56779 24.9078 5.54515 22.9102 7.96843 22.9102C10.3917 22.9102 12.3632 24.9078 12.3632 27.3633V28.2422ZM6.21051 19.3945C6.21051 18.4253 6.99911 17.6367 7.96843 17.6367C8.93774 17.6367 9.72634 18.4253 9.72634 19.3945C9.72634 20.3638 8.93774 21.1523 7.96843 21.1523C6.99911 21.1523 6.21051 20.3638 6.21051 19.3945ZM26.4265 28.2422H17.6311V27.3633C17.6311 24.9078 19.6084 22.9102 22.0317 22.9102C24.455 22.9102 26.4265 24.9078 26.4265 27.3633V28.2422ZM20.2738 19.3945C20.2738 18.4253 21.0624 17.6367 22.0317 17.6367C23.001 17.6367 23.7896 18.4253 23.7896 19.3945C23.7896 20.3638 23.001 21.1523 22.0317 21.1523C21.0624 21.1523 20.2738 20.3638 20.2738 19.3945ZM27.3054 22.9102H26.316C25.8298 22.4334 25.2663 22.0369 24.6462 21.7419C25.2061 21.119 25.5475 20.296 25.5475 19.3945C25.5475 17.456 23.9703 15.8789 22.0316 15.8789C20.093 15.8789 18.5158 17.456 18.5158 19.3945C18.5158 20.296 18.8572 21.119 19.417 21.7419C18.797 22.0369 18.2334 22.4334 17.7473 22.9102H12.2526C11.7664 22.4334 11.2029 22.0369 10.5828 21.7419C11.1427 21.119 11.4841 20.296 11.4841 19.3945C11.4841 17.456 9.90687 15.8789 7.96825 15.8789C6.02963 15.8789 4.45243 17.456 4.45243 19.3945C4.45243 20.296 4.79381 21.119 5.35365 21.7419C4.73387 22.0369 4.17028 22.4334 3.68416 22.9102H2.69464C2.14265 22.9102 1.68454 22.4158 1.7681 21.8924L3.05085 14.8689C3.05167 14.8645 3.05243 14.86 3.05319 14.8555C3.12415 14.4299 3.48874 14.1211 3.92019 14.1211C4.80876 14.1211 25.6261 14.1211 26.0799 14.1211C26.5114 14.1211 26.876 14.4299 26.9469 14.8555C26.9477 14.86 26.9485 14.8644 26.9493 14.8689L28.2318 21.8921C28.3155 22.4153 27.8578 22.9102 27.3054 22.9102Z" fill="white"/>
</svg>
