<svg width="20" height="20" viewBox="0 0 20 20" fill="none" xmlns="http://www.w3.org/2000/svg">
<path d="M19.4282 4.91452H0.571815C0.256286 4.91452 0 4.65823 0 4.3427V0.571815C0 0.255642 0.256286 0 0.571815 0H19.4282C19.7437 0 20 0.255642 20 0.571815V4.3427C20 4.65823 19.7437 4.91452 19.4282 4.91452ZM1.14299 3.77089H18.857V1.14234H1.14299V3.77089Z" fill="#42A4F4"/>
<path d="M19.4282 20H0.571815C0.256286 20 0 19.7437 0 19.4282V0.571815C0 0.255642 0.256286 0 0.571815 0H19.4282C19.7437 0 20 0.255642 20 0.571815V19.4282C20 19.7437 19.7437 20 19.4282 20ZM1.14299 18.857H18.857V1.14234H1.14299V18.857Z" fill="#42A4F4"/>
<path d="M9.86719 10.0518C9.86719 10.459 9.74854 10.7988 9.51123 11.0713C9.27393 11.3408 8.93994 11.5225 8.50928 11.6162V11.6514C9.0249 11.7158 9.41162 11.877 9.66943 12.1348C9.92725 12.3896 10.0562 12.7295 10.0562 13.1543C10.0562 13.7725 9.83789 14.25 9.40137 14.5869C8.96484 14.9209 8.34375 15.0879 7.53809 15.0879C6.82617 15.0879 6.22559 14.9722 5.73633 14.7407V13.8223C6.00879 13.957 6.29736 14.061 6.60205 14.1343C6.90674 14.2075 7.19971 14.2441 7.48096 14.2441C7.979 14.2441 8.35107 14.1519 8.59717 13.9673C8.84326 13.7827 8.96631 13.4971 8.96631 13.1104C8.96631 12.7676 8.83008 12.5156 8.55762 12.3545C8.28516 12.1934 7.85742 12.1128 7.27441 12.1128H6.71631V11.2734H7.2832C8.30859 11.2734 8.82129 10.9189 8.82129 10.21C8.82129 9.93457 8.73193 9.72217 8.55322 9.57275C8.37451 9.42334 8.11084 9.34863 7.76221 9.34863C7.51904 9.34863 7.28467 9.38379 7.05908 9.4541C6.8335 9.52148 6.56689 9.65479 6.25928 9.854L5.75391 9.1333C6.34277 8.69971 7.02686 8.48291 7.80615 8.48291C8.45361 8.48291 8.95898 8.62207 9.32227 8.90039C9.68555 9.17871 9.86719 9.5625 9.86719 10.0518ZM15.2505 11.7876C15.2505 12.9038 15.0703 13.7329 14.71 14.2749C14.3525 14.8169 13.8047 15.0879 13.0664 15.0879C12.3516 15.0879 11.8096 14.8081 11.4404 14.2485C11.0713 13.689 10.8867 12.8687 10.8867 11.7876C10.8867 10.6538 11.0654 9.81885 11.4229 9.28271C11.7832 8.74365 12.3311 8.47412 13.0664 8.47412C13.7842 8.47412 14.3276 8.75537 14.6968 9.31787C15.0659 9.88037 15.2505 10.7036 15.2505 11.7876ZM11.9326 11.7876C11.9326 12.6636 12.022 13.2891 12.2007 13.6641C12.3823 14.0391 12.6709 14.2266 13.0664 14.2266C13.4619 14.2266 13.7505 14.0361 13.9321 13.6553C14.1167 13.2744 14.209 12.6519 14.209 11.7876C14.209 10.9263 14.1167 10.3037 13.9321 9.91992C13.7505 9.5332 13.4619 9.33984 13.0664 9.33984C12.6709 9.33984 12.3823 9.52881 12.2007 9.90674C12.022 10.2847 11.9326 10.9116 11.9326 11.7876Z" fill="#42A4F4"/>
</svg>
