<svg width="28" height="30" viewBox="0 0 28 30" fill="none" xmlns="http://www.w3.org/2000/svg">
<path d="M3.58648 3.85688C3.28916 3.56162 2.8122 3.56161 2.51487 3.85073C2.21135 4.14599 2.21135 4.61964 2.50868 4.91491L4.31741 6.72339C4.45987 6.86487 4.6519 6.94484 4.85631 6.94484C5.05452 6.94484 5.24655 6.86487 5.38901 6.72339L10.8957 1.28563C11.193 0.990363 11.193 0.516711 10.9019 0.221448C10.6046 -0.0738159 10.1276 -0.0738159 9.83031 0.221448L8.16405 1.86385C7.27827 0.953455 6.04561 0.430593 4.751 0.430593C2.13083 0.430593 0 2.54665 0 5.14866C0 7.75066 2.13083 9.86672 4.751 9.86672C6.86325 9.86672 8.69056 8.51958 9.30379 6.51425C9.42768 6.11441 9.19849 5.69612 8.79586 5.5731C8.39324 5.45622 7.97202 5.67767 7.84814 6.07751C7.43932 7.41849 6.1633 8.35965 4.751 8.35965C2.96706 8.35965 1.5176 6.92024 1.5176 5.14866C1.5176 3.37708 2.96706 1.93767 4.751 1.93767C5.63679 1.93767 6.47921 2.30675 7.08624 2.93418L4.8625 5.1302L3.58648 3.85688Z" fill="white"/>
<path d="M4.751 10.4941C2.13083 10.4941 0 12.6102 0 15.2122C0 17.8142 2.13083 19.9303 4.751 19.9303C7.37118 19.9303 9.50201 17.8142 9.50201 15.2122C9.50201 12.6102 7.37118 10.4941 4.751 10.4941ZM4.751 18.4232C2.96705 18.4232 1.5176 16.9838 1.5176 15.2122C1.5176 13.4406 2.96705 12.0012 4.751 12.0012C6.53495 12.0012 7.98441 13.4406 7.98441 15.2122C7.98441 16.9838 6.53495 18.4232 4.751 18.4232Z" fill="white"/>
<path d="M9.50201 25.2819C9.50201 22.6799 7.37118 20.5639 4.751 20.5639C2.13083 20.5639 0 22.6799 0 25.2819C0 27.8839 2.13083 30 4.751 30C7.37118 30 9.50201 27.8839 9.50201 25.2819ZM4.751 28.4991C2.96705 28.4991 1.5176 27.0597 1.5176 25.2881C1.5176 23.5165 2.96705 22.0771 4.751 22.0771C6.53495 22.0771 7.98441 23.5165 7.98441 25.2881C7.98441 27.0597 6.53495 28.4991 4.751 28.4991Z" fill="white"/>
<path d="M26.6849 14.4556H11.924C11.5028 14.4556 11.1621 14.794 11.1621 15.2122C11.1621 15.6305 11.5028 15.9689 11.924 15.9689H26.6849C27.1061 15.9689 27.4468 15.6305 27.4468 15.2122C27.4468 14.794 27.1061 14.4556 26.6849 14.4556Z" fill="white"/>
<path d="M26.6849 4.39819H11.924C11.5028 4.39819 11.1621 4.73652 11.1621 5.15481C11.1621 5.5731 11.5028 5.91142 11.924 5.91142H26.6849C27.1061 5.91142 27.4468 5.5731 27.4468 5.15481C27.4468 4.73652 27.1061 4.39819 26.6849 4.39819Z" fill="white"/>
<path d="M26.6849 24.5315H11.924C11.5028 24.5315 11.1621 24.8698 11.1621 25.2881C11.1621 25.7064 11.5028 26.0447 11.924 26.0447H26.6849C27.1061 26.0447 27.4468 25.7064 27.4468 25.2881C27.4468 24.8636 27.1061 24.5315 26.6849 24.5315Z" fill="white"/>
</svg>
