<svg width="155" height="49" viewBox="0 0 155 49" fill="none" xmlns="http://www.w3.org/2000/svg">
<path d="M88.0195 45.1172C87.6016 45.1172 87.2188 45.041 86.8711 44.8887C86.5273 44.7324 86.2383 44.4941 86.0039 44.1738H85.9336C85.9805 44.5488 86.0039 44.9043 86.0039 45.2402V47.8828H85.0312V38.5781H85.8223L85.957 39.457H86.0039C86.2539 39.1055 86.5449 38.8516 86.877 38.6953C87.209 38.5391 87.5898 38.4609 88.0195 38.4609C88.8711 38.4609 89.5273 38.752 89.9883 39.334C90.4531 39.916 90.6855 40.7324 90.6855 41.7832C90.6855 42.8379 90.4492 43.6582 89.9766 44.2441C89.5078 44.8262 88.8555 45.1172 88.0195 45.1172ZM87.8789 39.2871C87.2227 39.2871 86.748 39.4688 86.4551 39.832C86.1621 40.1953 86.0117 40.7734 86.0039 41.5664V41.7832C86.0039 42.6855 86.1543 43.332 86.4551 43.7227C86.7559 44.1094 87.2383 44.3027 87.9023 44.3027C88.457 44.3027 88.8906 44.0781 89.2031 43.6289C89.5195 43.1797 89.6777 42.5605 89.6777 41.7715C89.6777 40.9707 89.5195 40.3574 89.2031 39.9316C88.8906 39.502 88.4492 39.2871 87.8789 39.2871ZM95.1035 45.1172C94.1543 45.1172 93.4043 44.8281 92.8535 44.25C92.3066 43.6719 92.0332 42.8691 92.0332 41.8418C92.0332 40.8066 92.2871 39.9844 92.7949 39.375C93.3066 38.7656 93.9922 38.4609 94.8516 38.4609C95.6562 38.4609 96.293 38.7266 96.7617 39.2578C97.2305 39.7852 97.4648 40.4824 97.4648 41.3496V41.9648H93.041C93.0605 42.7188 93.25 43.291 93.6094 43.6816C93.9727 44.0723 94.4824 44.2676 95.1387 44.2676C95.8301 44.2676 96.5137 44.123 97.1895 43.834V44.7012C96.8457 44.8496 96.5195 44.9551 96.2109 45.0176C95.9062 45.084 95.5371 45.1172 95.1035 45.1172ZM94.8398 39.2754C94.3242 39.2754 93.9121 39.4434 93.6035 39.7793C93.2988 40.1152 93.1191 40.5801 93.0645 41.1738H96.4219C96.4219 40.5605 96.2852 40.0918 96.0117 39.7676C95.7383 39.4395 95.3477 39.2754 94.8398 39.2754ZM101.842 45.1172C100.893 45.1172 100.143 44.8281 99.5918 44.25C99.0449 43.6719 98.7715 42.8691 98.7715 41.8418C98.7715 40.8066 99.0254 39.9844 99.5332 39.375C100.045 38.7656 100.73 38.4609 101.59 38.4609C102.395 38.4609 103.031 38.7266 103.5 39.2578C103.969 39.7852 104.203 40.4824 104.203 41.3496V41.9648H99.7793C99.7988 42.7188 99.9883 43.291 100.348 43.6816C100.711 44.0723 101.221 44.2676 101.877 44.2676C102.568 44.2676 103.252 44.123 103.928 43.834V44.7012C103.584 44.8496 103.258 44.9551 102.949 45.0176C102.645 45.084 102.275 45.1172 101.842 45.1172ZM101.578 39.2754C101.062 39.2754 100.65 39.4434 100.342 39.7793C100.037 40.1152 99.8574 40.5801 99.8027 41.1738H103.16C103.16 40.5605 103.023 40.0918 102.75 39.7676C102.477 39.4395 102.086 39.2754 101.578 39.2754ZM108.434 45.1172C107.504 45.1172 106.783 44.832 106.271 44.2617C105.764 43.6875 105.51 42.877 105.51 41.8301C105.51 40.7559 105.768 39.9258 106.283 39.3398C106.803 38.7539 107.541 38.4609 108.498 38.4609C108.807 38.4609 109.115 38.4941 109.424 38.5605C109.732 38.627 109.975 38.7051 110.15 38.7949L109.852 39.6211C109.637 39.5352 109.402 39.4648 109.148 39.4102C108.895 39.3516 108.67 39.3223 108.475 39.3223C107.17 39.3223 106.518 40.1543 106.518 41.8184C106.518 42.6074 106.676 43.2129 106.992 43.6348C107.312 44.0566 107.785 44.2676 108.41 44.2676C108.945 44.2676 109.494 44.1523 110.057 43.9219V44.7832C109.627 45.0059 109.086 45.1172 108.434 45.1172ZM115.916 39.4102H113.83V45H112.857V39.4102H110.795V38.5781H115.916V39.4102ZM120.176 45.1172C119.758 45.1172 119.375 45.041 119.027 44.8887C118.684 44.7324 118.395 44.4941 118.16 44.1738H118.09C118.137 44.5488 118.16 44.9043 118.16 45.2402V47.8828H117.188V38.5781H117.979L118.113 39.457H118.16C118.41 39.1055 118.701 38.8516 119.033 38.6953C119.365 38.5391 119.746 38.4609 120.176 38.4609C121.027 38.4609 121.684 38.752 122.145 39.334C122.609 39.916 122.842 40.7324 122.842 41.7832C122.842 42.8379 122.605 43.6582 122.133 44.2441C121.664 44.8262 121.012 45.1172 120.176 45.1172ZM120.035 39.2871C119.379 39.2871 118.904 39.4688 118.611 39.832C118.318 40.1953 118.168 40.7734 118.16 41.5664V41.7832C118.16 42.6855 118.311 43.332 118.611 43.7227C118.912 44.1094 119.395 44.3027 120.059 44.3027C120.613 44.3027 121.047 44.0781 121.359 43.6289C121.676 43.1797 121.834 42.5605 121.834 41.7715C121.834 40.9707 121.676 40.3574 121.359 39.9316C121.047 39.502 120.605 39.2871 120.035 39.2871Z" fill="white"/>
<path d="M85.9453 24.5781V28.6504L85.9043 29.7168L85.8867 30.0508L89.3613 24.5781H90.5742V31H89.666V27.0742L89.6836 26.3008L89.7129 25.5391L86.2441 31H85.0312V24.5781H85.9453ZM93.6094 24.5781V27.2676H97.207V24.5781H98.1797V31H97.207V28.1055H93.6094V31H92.6367V24.5781H93.6094ZM104.572 25.4102H102.486V31H101.514V25.4102H99.4512V24.5781H104.572V25.4102ZM108.557 31.1172C107.607 31.1172 106.857 30.8281 106.307 30.25C105.76 29.6719 105.486 28.8691 105.486 27.8418C105.486 26.8066 105.74 25.9844 106.248 25.375C106.76 24.7656 107.445 24.4609 108.305 24.4609C109.109 24.4609 109.746 24.7266 110.215 25.2578C110.684 25.7852 110.918 26.4824 110.918 27.3496V27.9648H106.494C106.514 28.7188 106.703 29.291 107.062 29.6816C107.426 30.0723 107.936 30.2676 108.592 30.2676C109.283 30.2676 109.967 30.123 110.643 29.834V30.7012C110.299 30.8496 109.973 30.9551 109.664 31.0176C109.359 31.084 108.99 31.1172 108.557 31.1172ZM108.293 25.2754C107.777 25.2754 107.365 25.4434 107.057 25.7793C106.752 26.1152 106.572 26.5801 106.518 27.1738H109.875C109.875 26.5605 109.738 26.0918 109.465 25.7676C109.191 25.4395 108.801 25.2754 108.293 25.2754ZM115.57 31.1172C115.152 31.1172 114.77 31.041 114.422 30.8887C114.078 30.7324 113.789 30.4941 113.555 30.1738H113.484C113.531 30.5488 113.555 30.9043 113.555 31.2402V33.8828H112.582V24.5781H113.373L113.508 25.457H113.555C113.805 25.1055 114.096 24.8516 114.428 24.6953C114.76 24.5391 115.141 24.4609 115.57 24.4609C116.422 24.4609 117.078 24.752 117.539 25.334C118.004 25.916 118.236 26.7324 118.236 27.7832C118.236 28.8379 118 29.6582 117.527 30.2441C117.059 30.8262 116.406 31.1172 115.57 31.1172ZM115.43 25.2871C114.773 25.2871 114.299 25.4688 114.006 25.832C113.713 26.1953 113.562 26.7734 113.555 27.5664V27.7832C113.555 28.6855 113.705 29.332 114.006 29.7227C114.307 30.1094 114.789 30.3027 115.453 30.3027C116.008 30.3027 116.441 30.0781 116.754 29.6289C117.07 29.1797 117.229 28.5605 117.229 27.7715C117.229 26.9707 117.07 26.3574 116.754 25.9316C116.441 25.502 116 25.2871 115.43 25.2871ZM120.914 24.5781V27.2676H124.512V24.5781H125.484V31H124.512V28.1055H120.914V31H119.941V24.5781H120.914ZM130.26 31.1172C129.311 31.1172 128.561 30.8281 128.01 30.25C127.463 29.6719 127.189 28.8691 127.189 27.8418C127.189 26.8066 127.443 25.9844 127.951 25.375C128.463 24.7656 129.148 24.4609 130.008 24.4609C130.812 24.4609 131.449 24.7266 131.918 25.2578C132.387 25.7852 132.621 26.4824 132.621 27.3496V27.9648H128.197C128.217 28.7188 128.406 29.291 128.766 29.6816C129.129 30.0723 129.639 30.2676 130.295 30.2676C130.986 30.2676 131.67 30.123 132.346 29.834V30.7012C132.002 30.8496 131.676 30.9551 131.367 31.0176C131.062 31.084 130.693 31.1172 130.26 31.1172ZM129.996 25.2754C129.48 25.2754 129.068 25.4434 128.76 25.7793C128.455 26.1152 128.275 26.5801 128.221 27.1738H131.578C131.578 26.5605 131.441 26.0918 131.168 25.7676C130.895 25.4395 130.504 25.2754 129.996 25.2754ZM138.615 25.4102H136.529V31H135.557V25.4102H133.494V24.5781H138.615V25.4102Z" fill="white"/>
<path d="M94.0938 17H92.7656V6.75781H86.8984V17H85.5703V5.57812H94.0938V17ZM104.422 17L103 13.3672H98.4219L97.0156 17H95.6719L100.188 5.53125H101.305L105.797 17H104.422ZM102.586 12.1719L101.258 8.63281C101.086 8.1849 100.909 7.63542 100.727 6.98438C100.612 7.48438 100.448 8.03385 100.234 8.63281L98.8906 12.1719H102.586ZM114.609 8.90625C114.609 10.0625 114.214 10.9531 113.422 11.5781C112.635 12.1979 111.508 12.5078 110.039 12.5078H108.695V17H107.367V5.57812H110.328C113.182 5.57812 114.609 6.6875 114.609 8.90625ZM108.695 11.3672H109.891C111.068 11.3672 111.919 11.1771 112.445 10.7969C112.971 10.4167 113.234 9.80729 113.234 8.96875C113.234 8.21354 112.987 7.65104 112.492 7.28125C111.997 6.91146 111.227 6.72656 110.18 6.72656H108.695V11.3672ZM117.023 5.57812H118.266V11.9297C118.266 13.1016 118.229 14.1615 118.156 15.1094H118.219L124.625 5.57812H126.078V17H124.828V10.7109C124.828 9.66406 124.872 8.5651 124.961 7.41406H124.891L118.477 17H117.023V5.57812ZM132.727 17H131.398V6.75781H127.781V5.57812H136.344V6.75781H132.727V17ZM144.438 17H138.07V5.57812H144.438V6.75781H139.398V10.4375H144.133V11.6094H139.398V15.8125H144.438V17ZM150.492 17H149.164V6.75781H145.547V5.57812H154.109V6.75781H150.492V17Z" fill="white"/>
<rect x="56.5269" y="4" width="18" height="44" transform="rotate(45 56.5269 4)" fill="#E62E2E"/>
<rect x="32.0393" y="3.30617" width="18" height="44" transform="rotate(45 32.0393 3.30617)" fill="white"/>
</svg>
