<svg width="32" height="32" viewBox="0 0 32 32" fill="none" xmlns="http://www.w3.org/2000/svg">
<rect width="30" height="30" transform="translate(1 1)" fill="#00467F"/>
<path d="M30.6212 4.80016L21.8713 1.05018C21.6151 0.940203 21.3138 1.0152 21.1375 1.23393L18.6375 4.35889C18.5187 4.50637 18.4737 4.69891 18.515 4.88389C18.5537 5.06014 18.6687 5.20515 18.825 5.2914L10.9725 8.23636C10.3138 8.48386 9.75002 8.95261 9.38879 9.55513L6.7938 13.8801C6.24132 14.8013 6.19755 15.925 6.67878 16.885L6.8613 17.25H4.12503C3.78003 17.25 3.50001 17.53 3.50001 17.875V29.75H1.62502C1.28002 29.75 1 30.03 1 30.375C1 30.72 1.28002 31 1.62502 31H22.875C23.22 31 23.5 30.72 23.5 30.375C23.5 30.03 23.22 29.75 22.875 29.75H21V21C21 20.9525 20.9825 20.9113 20.9737 20.8676C22.1463 20.0738 23.4862 18.8489 24.655 16.9563C26.6413 13.7438 27.7575 11.1577 28.2163 9.99387L28.2863 10.0289C28.5538 10.1626 28.8401 10.2288 29.1263 10.2288C29.4675 10.2288 29.8076 10.1351 30.11 9.94635C30.6675 9.60259 31 9.00634 31 8.35138V5.3739C31 5.12389 30.8512 4.89889 30.6212 4.80016ZM19.75 29.75H4.75005V18.5H7.88381C7.89881 18.5 7.91381 18.5013 7.93004 18.5H12.885C12.3213 18.8425 11.6288 19.2738 10.7525 19.8313C10.0862 20.255 9.63002 20.9125 9.46748 21.685C9.30371 22.4575 9.455 23.2462 9.89621 23.9062C10.455 24.7474 11.3762 25.2049 12.3187 25.2049C12.8287 25.2049 13.3462 25.0699 13.815 24.7912L18.1099 22.215C18.3562 22.155 18.9599 21.9813 19.7499 21.5875V29.75H19.75ZM11.4525 15.6713C12.4088 15.2614 13.6875 14.5189 14.3363 13.7626C14.835 14.0551 15.62 14.4313 16.6013 14.6239C15.9038 15.4876 15.2037 16.5376 14.9075 17.2814C14.8562 17.2676 14.8062 17.2501 14.75 17.2501H12.1825C12.05 16.6288 11.7438 16.0801 11.4525 15.6713ZM23.595 16.2988C21.13 20.2863 17.7875 21.0075 17.755 21.0138C17.685 21.0288 17.6163 21.055 17.555 21.0913L13.1751 23.7188C12.4126 24.1775 11.4301 23.9563 10.9351 23.2138C10.6851 22.8375 10.5988 22.3875 10.6913 21.9463C10.7851 21.5063 11.0451 21.13 11.4251 20.8888C14.7839 18.7501 15.3901 18.515 15.3776 18.5013C15.7238 18.5013 16.0013 18.2513 16.0013 17.9063C16.0651 17.515 17.2038 15.685 18.32 14.5688C18.4988 14.39 18.5525 14.1213 18.455 13.8875C18.3588 13.6538 18.13 13.5013 17.8775 13.5013C15.9325 13.5013 14.5325 12.4 14.5188 12.3888C14.3313 12.24 14.08 12.17 13.8625 12.275C13.645 12.3788 13.5126 12.5588 13.5126 12.7988C13.2913 13.335 10.8925 14.6913 10.375 14.75C10.1175 14.75 9.88877 14.9063 9.79502 15.1463C9.70127 15.3863 9.76379 15.6588 9.95252 15.8338C9.96002 15.8413 10.615 16.4637 10.8825 17.25H8.26004L7.79879 16.325C7.51005 15.7487 7.53506 15.075 7.86753 14.5225L10.4625 10.1975C10.68 9.83503 11.0175 9.55507 11.4125 9.4063L20.34 6.0588L27.0937 9.43501C26.68 10.4913 25.5762 13.0926 23.595 16.2988ZM29.75 8.35384C29.75 8.66884 29.5425 8.83009 29.4537 8.88511C29.3649 8.94013 29.1262 9.05263 28.8462 8.91259L20.0963 4.53766L21.8163 2.38892L29.75 5.78892V8.35384H29.75Z" fill="white" stroke="white" stroke-width="0.5"/>
</svg>
