<svg width="30" height="30" viewBox="0 0 30 30" fill="none" xmlns="http://www.w3.org/2000/svg">
<path d="M29.6212 3.80016L20.8713 0.0501829C20.6151 -0.0597968 20.3138 0.0152027 20.1375 0.233932L17.6375 3.35889C17.5187 3.50637 17.4737 3.69891 17.515 3.88389C17.5537 4.06014 17.6687 4.20515 17.825 4.2914L9.97252 7.23636C9.31375 7.48386 8.75002 7.95261 8.38879 8.55513L5.7938 12.8801C5.24132 13.8013 5.19755 14.925 5.67878 15.885L5.8613 16.25H3.12503C2.78003 16.25 2.50001 16.53 2.50001 16.875V28.75H0.625018C0.280019 28.75 0 29.03 0 29.375C0 29.72 0.280019 30 0.625018 30H21.875C22.22 30 22.5 29.72 22.5 29.375C22.5 29.03 22.22 28.75 21.875 28.75H20V20C20 19.9525 19.9825 19.9113 19.9737 19.8676C21.1463 19.0738 22.4862 17.8489 23.655 15.9563C25.6413 12.7438 26.7575 10.1577 27.2163 8.99387L27.2863 9.02885C27.5538 9.16262 27.8401 9.22883 28.1263 9.22883C28.4675 9.22883 28.8076 9.13508 29.11 8.94635C29.6675 8.60259 30 8.00634 30 7.35138V4.3739C30 4.12389 29.8512 3.89889 29.6212 3.80016ZM18.75 28.75H3.75005V17.5H6.88381C6.89881 17.5 6.91381 17.5013 6.93004 17.5H11.885C11.3213 17.8425 10.6288 18.2738 9.7525 18.8313C9.08623 19.255 8.63002 19.9125 8.46748 20.685C8.30371 21.4575 8.455 22.2462 8.89621 22.9062C9.45496 23.7474 10.3762 24.2049 11.3187 24.2049C11.8287 24.2049 12.3462 24.0699 12.815 23.7912L17.1099 21.215C17.3562 21.155 17.9599 20.9813 18.7499 20.5875V28.75H18.75ZM10.4525 14.6713C11.4088 14.2614 12.6875 13.5189 13.3363 12.7626C13.835 13.0551 14.62 13.4313 15.6013 13.6239C14.9038 14.4876 14.2037 15.5376 13.9075 16.2814C13.8562 16.2676 13.8062 16.2501 13.75 16.2501H11.1825C11.05 15.6288 10.7438 15.0801 10.4525 14.6713ZM22.595 15.2988C20.13 19.2863 16.7875 20.0075 16.755 20.0138C16.685 20.0288 16.6163 20.055 16.555 20.0913L12.1751 22.7188C11.4126 23.1775 10.4301 22.9563 9.93508 22.2138C9.68506 21.8375 9.59881 21.3875 9.69133 20.9463C9.78508 20.5063 10.0451 20.13 10.4251 19.8888C13.7839 17.7501 14.3901 17.515 14.3776 17.5013C14.7238 17.5013 15.0013 17.2513 15.0013 16.9063C15.0651 16.515 16.2038 14.685 17.32 13.5688C17.4988 13.39 17.5525 13.1213 17.455 12.8875C17.3588 12.6538 17.13 12.5013 16.8775 12.5013C14.9325 12.5013 13.5326 11.4 13.5188 11.3888C13.3313 11.24 13.08 11.17 12.8625 11.275C12.645 11.3788 12.5126 11.5588 12.5126 11.7988C12.2913 12.335 9.89254 13.6913 9.37504 13.75C9.11752 13.75 8.88877 13.9063 8.79502 14.1463C8.70127 14.3863 8.76379 14.6588 8.95252 14.8338C8.96002 14.8413 9.61504 15.4637 9.88252 16.25H7.26004L6.79879 15.325C6.51005 14.7487 6.53506 14.075 6.86753 13.5225L9.46252 9.19754C9.68002 8.83503 10.0175 8.55507 10.4125 8.4063L19.34 5.0588L26.0937 8.43501C25.68 9.49133 24.5762 12.0926 22.595 15.2988ZM28.75 7.35384C28.75 7.66884 28.5425 7.83009 28.4537 7.88511C28.3649 7.94013 28.1262 8.05263 27.8462 7.91259L19.0963 3.53766L20.8163 1.38892L28.75 4.78892V7.35384H28.75Z" fill="white"/>
</svg>
