<svg width="20" height="20" viewBox="0 0 20 20" fill="none" xmlns="http://www.w3.org/2000/svg">
<path d="M19.4282 4.91452H0.571815C0.256286 4.91452 0 4.65823 0 4.3427V0.571815C0 0.255642 0.256286 0 0.571815 0H19.4282C19.7437 0 20 0.255642 20 0.571815V4.3427C20 4.65823 19.7437 4.91452 19.4282 4.91452ZM1.14299 3.77089H18.857V1.14234H1.14299V3.77089Z" fill="#42A4F4"/>
<path d="M19.4282 20H0.571815C0.256286 20 0 19.7437 0 19.4282V0.571815C0 0.255642 0.256286 0 0.571815 0H19.4282C19.7437 0 20 0.255642 20 0.571815V19.4282C20 19.7437 19.7437 20 19.4282 20ZM1.14299 18.857H18.857V1.14234H1.14299V18.857Z" fill="#42A4F4"/>
<path d="M7.5083 10.1514C7.5083 10.4681 7.41602 10.7324 7.23145 10.9443C7.04688 11.154 6.78711 11.2952 6.45215 11.3682V11.3955C6.85319 11.4456 7.15397 11.571 7.35449 11.7715C7.55501 11.9697 7.65527 12.234 7.65527 12.5645C7.65527 13.0452 7.48551 13.4167 7.146 13.6787C6.80648 13.9385 6.3234 14.0684 5.69678 14.0684C5.14307 14.0684 4.67594 13.9784 4.29541 13.7983V13.084C4.50732 13.1888 4.73177 13.2697 4.96875 13.3267C5.20573 13.3836 5.43359 13.4121 5.65234 13.4121C6.03971 13.4121 6.3291 13.3403 6.52051 13.1968C6.71191 13.0532 6.80762 12.8311 6.80762 12.5303C6.80762 12.2637 6.70166 12.0677 6.48975 11.9424C6.27783 11.8171 5.94515 11.7544 5.4917 11.7544H5.05762V11.1016H5.49854C6.29606 11.1016 6.69482 10.8258 6.69482 10.2744C6.69482 10.0602 6.62533 9.89502 6.48633 9.77881C6.34733 9.6626 6.14225 9.60449 5.87109 9.60449C5.68197 9.60449 5.49967 9.63184 5.32422 9.68652C5.14876 9.73893 4.94141 9.84261 4.70215 9.99756L4.30908 9.43701C4.76709 9.09977 5.29915 8.93115 5.90527 8.93115C6.40885 8.93115 6.80192 9.03939 7.08447 9.25586C7.36702 9.47233 7.5083 9.77083 7.5083 10.1514ZM8.32178 11.8706C8.32178 9.91553 9.11816 8.93799 10.7109 8.93799C10.9616 8.93799 11.1735 8.95736 11.3467 8.99609V9.66602C11.1735 9.61589 10.973 9.59082 10.7451 9.59082C10.2096 9.59082 9.80745 9.73438 9.53857 10.0215C9.26969 10.3086 9.12386 10.7689 9.10107 11.4023H9.14209C9.24919 11.2178 9.39958 11.0754 9.59326 10.9751C9.78695 10.8726 10.0148 10.8213 10.2769 10.8213C10.7303 10.8213 11.0835 10.9603 11.3364 11.2383C11.5894 11.5163 11.7158 11.8934 11.7158 12.3696C11.7158 12.8937 11.5688 13.3084 11.2749 13.6138C10.9832 13.9168 10.5845 14.0684 10.0786 14.0684C9.72087 14.0684 9.40983 13.9829 9.14551 13.812C8.88118 13.6388 8.67725 13.3882 8.53369 13.0601C8.39242 12.7297 8.32178 12.3332 8.32178 11.8706ZM10.0649 13.4053C10.3407 13.4053 10.5526 13.3164 10.7007 13.1387C10.8511 12.9609 10.9263 12.7069 10.9263 12.3765C10.9263 12.0894 10.8556 11.8638 10.7144 11.6997C10.5754 11.5356 10.3657 11.4536 10.0854 11.4536C9.91227 11.4536 9.75277 11.4912 9.60693 11.5664C9.4611 11.6393 9.34603 11.7407 9.26172 11.8706C9.17741 11.9982 9.13525 12.1292 9.13525 12.2637C9.13525 12.585 9.22184 12.8561 9.39502 13.0771C9.57048 13.2959 9.79378 13.4053 10.0649 13.4053ZM14.0024 10.8794C14.506 10.8794 14.9048 11.0127 15.1987 11.2793C15.4927 11.5459 15.6396 11.9093 15.6396 12.3696C15.6396 12.9028 15.4722 13.3198 15.1372 13.6206C14.8045 13.9191 14.3306 14.0684 13.7153 14.0684C13.1571 14.0684 12.7184 13.9784 12.3994 13.7983V13.0703C12.584 13.1751 12.7959 13.256 13.0352 13.313C13.2744 13.37 13.4966 13.3984 13.7017 13.3984C14.064 13.3984 14.3397 13.3175 14.5288 13.1558C14.7179 12.994 14.8125 12.757 14.8125 12.4448C14.8125 11.8478 14.432 11.5493 13.6709 11.5493C13.5638 11.5493 13.4316 11.5607 13.2744 11.5835C13.1172 11.604 12.9793 11.6279 12.8608 11.6553L12.502 11.4434L12.6934 9.00293H15.291V9.71729H13.4009L13.2881 10.9546C13.3678 10.9409 13.4647 10.925 13.5786 10.9067C13.6948 10.8885 13.8361 10.8794 14.0024 10.8794Z" fill="#42A4F4"/>
</svg>
